# xmcd
#
# Track frame offsets: 
#        150
#        19700
#        40175
#        60975
#
# Disc length: 1056 seconds
#
# Revision: 0
# Processed by: cddbd v1.5.2PL0 Copyright (c) Steve Scherf et al.
# Submitted via: ExactAudioCopy v0.95b3
#
DISCID=25041e04
DTITLE=Babette van Veen - Gate 7
DYEAR=1992
DGENRE=Pop
TTITLE0=Gate 7
TTITLE1=Gate 7 - Instrumental version
TTITLE2=Gate 7 - Dance version
TTITLE3=Gate 7 - Special version
EXTD=
EXTT0=
EXTT1=
EXTT2=
EXTT3=
PLAYORDER=
